<svg xmlns="http://www.w3.org/2000/svg" width="41" height="22" viewBox="0 0 41 22">
    <g fill="none" fill-rule="evenodd" transform="translate(1 1)">
        <rect width="39.5" height="20.5" x="-.25" y="-.25" fill="#F1F2F6" stroke="#C3C3C3" stroke-width=".5" rx="2"/>
        <g fill-rule="nonzero">
            <path fill="#2FABF7" d="M2.455 2.477L3.455 2.477 2.955 1.205z" transform="translate(5 5)"/>
            <path fill="#228FE0" d="M14.864 1.386c-.091-.045-.228-.045-.364-.045h-.91v.727h.91c.136 0 .273 0 .364-.045.09-.046.136-.182.136-.318.045-.182-.045-.273-.136-.319z" transform="translate(5 5)"/>
            <path fill="#0571C1" d="M24.59.023v.545l-.272-.545h-2.136v.545l-.273-.545H19c-.5 0-.91.09-1.273.272V.023h-2.045v.272c-.227-.181-.5-.272-.864-.272H7.5L7 1.159 6.5.023H4.182v.545L3.909.023H1.955l-.91 2.136L0 4.523H2.318l.273-.728h.636l.273.728h2.636v-.546l.228.546h1.318l.227-.546v.546h6.318V3.34h.091c.091 0 .091 0 .091.136v1h3.273v-.272c.273.136.682.272 1.227.272h1.364l.272-.727h.637l.273.727h2.636v-.682l.409.682h2.136V.023h-2.045zM9.228 3.84h-.772v-2.5l-1.091 2.5h-.682L5.59 1.34v2.5H4.045l-.318-.682H2.182l-.273.727h-.864L2.41.66h1.136l1.273 3.046V.659h1.227l1 2.182.91-2.182h1.272v3.182zm3.091-2.5h-1.773v.59h1.728v.637h-1.728v.637h1.773v.681H9.773V.66h2.545v.682zm3.41 1.318c.09.182.136.318.136.591v.636h-.773v-.409c0-.182 0-.454-.136-.636-.137-.136-.273-.136-.546-.136h-.818v1.181h-.773V.66h1.727c.41 0 .682 0 .91.136.227.137.363.364.363.728 0 .5-.318.772-.545.863.227.046.363.182.454.273zm1.363 1.182h-.773V.614h.773V3.84zm8.954 0h-1.09L23.5 1.43v2.41h-1.545l-.273-.682H20.09l-.273.727h-.863c-.364 0-.819-.09-1.091-.363-.273-.273-.41-.637-.41-1.228 0-.454.091-.909.41-1.272C18.09.75 18.5.659 19 .659h.727v.682H19c-.273 0-.41.045-.59.182-.137.136-.228.409-.228.727 0 .364.045.59.227.773.136.136.318.182.546.182h.318l1.045-2.5h1.137l1.272 3.045V.705h1.137l1.318 2.227V.705h.773V3.84h.09z" transform="translate(5 5)"/>
            <g fill="#228FE0">
                <path d="M8.943 1.284L9.989 1.284 9.489.011zM1.216 7.83L1.216 5.239.034 6.511z" transform="translate(5 5) translate(11.42 1.193)"/>
            </g>
            <path fill="#2FABF7" d="M7.773 6.75L7.773 7.341 9.455 7.341 9.455 7.977 7.773 7.977 7.773 8.659 9.636 8.659 10.5 7.705 9.682 6.75z" transform="translate(5 5)"/>
            <path fill="#228FE0" d="M14.364 6.75h-.955v.818h1c.273 0 .455-.136.455-.409-.046-.273-.228-.409-.5-.409z" transform="translate(5 5)"/>
            <path fill="#0571C1" d="M28.41 7.523V5.477H26.5c-.41 0-.727.091-.955.273v-.273h-2.09c-.319 0-.728.091-.91.273v-.273h-3.681v.273c-.273-.227-.773-.273-1-.273h-2.455v.273c-.227-.227-.773-.273-1.045-.273h-2.728L11 6.16l-.59-.682H6.317v4.455h4l.637-.682.59.682H14V8.886h.318c.318 0 .727 0 1.046-.136v1.227h2.045V8.795h.091c.136 0 .136 0 .136.137v1.045h6.182c.41 0 .818-.09 1.046-.272v.272h1.954c.41 0 .818-.045 1.091-.227.455-.273.727-.773.727-1.364 0-.318-.09-.636-.227-.863zm-14.092.727h-.909v1.09h-1.454l-.91-1.045-.954 1.046h-3V6.114h3.045l.91 1.045L12 6.114h2.41c.59 0 1.272.181 1.272 1.045-.046.91-.682 1.091-1.364 1.091zm4.546-.182c.09.137.136.318.136.591v.636h-.773v-.409c0-.181 0-.5-.136-.636-.091-.136-.273-.136-.546-.136h-.818v1.181h-.772V6.068h1.727c.363 0 .682 0 .909.137.227.136.409.363.409.727 0 .5-.318.773-.545.863.227.091.363.182.409.273zM22 6.75h-1.773v.59h1.728v.637h-1.728v.637H22v.681h-2.545V6.068H22v.682zm1.91 2.545h-1.455v-.681h1.454c.136 0 .227 0 .318-.091.046-.046.091-.137.091-.228 0-.09-.045-.181-.09-.227-.046-.045-.137-.09-.273-.09-.728-.046-1.591 0-1.591-1 0-.455.272-.955 1.09-.955h1.5v.772h-1.409c-.136 0-.227 0-.318.046-.09.045-.09.136-.09.227 0 .137.09.182.181.227.091.046.182.046.273.046H24c.41 0 .682.09.864.273.136.136.227.363.227.681 0 .682-.41 1-1.182 1zm3.908-.318c-.182.182-.5.318-.954.318h-1.455v-.681h1.455c.136 0 .227 0 .318-.091.045-.046.09-.137.09-.228 0-.09-.045-.181-.09-.227-.046-.045-.137-.09-.273-.09-.727-.046-1.59 0-1.59-1 0-.455.272-.955 1.09-.955h1.5v.772h-1.364c-.136 0-.227 0-.318.046-.09.045-.09.136-.09.227 0 .137.045.182.181.227.091.046.182.046.273.046H27c.41 0 .682.09.864.273.045 0 .045.045.045.045.136.182.182.41.182.636 0 .273-.091.5-.273.682z" transform="translate(5 5)"/>
            <path fill="#228FE0" d="M18.045 6.84c-.09-.045-.227-.045-.363-.045h-.91v.728h.91c.136 0 .273 0 .363-.046.091-.045.137-.182.137-.318.045-.182-.046-.273-.137-.318z" transform="translate(5 5)"/>
            <g fill="#228FE0">
                <path d="M3.443.193C3.353.148 3.216.148 3.08.148h-.91v.727h.91c.136 0 .272 0 .363-.045.091-.046.137-.182.137-.319C3.625.33 3.534.24 3.443.193zM8.943 1.284L9.989 1.284 9.489.011zM1.216 7.83L1.216 5.239.034 6.511z" transform="translate(5 5) translate(11.42 1.193)"/>
            </g>
            <path fill="#228FE0" d="M14.364 6.75h-.955v.818h1c.273 0 .455-.136.455-.409-.046-.273-.228-.409-.5-.409zM18.045 6.84c-.09-.045-.227-.045-.363-.045h-.91v.728h.91c.136 0 .273 0 .363-.046.091-.045.137-.182.137-.318.045-.182-.046-.273-.137-.318z" transform="translate(5 5)"/>
            <g fill="#2FABF7">
                <path d="M14.045 9.205L13.409 8.523 13.409 9.295 11.909 9.295 11 8.25 10 9.295 7 9.295 7 6.114 10.045 6.114 11 7.159 11.455 6.614 10.318 5.477 6.318 5.477 6.318 9.932 10.318 9.932 11 9.25 11.591 9.932 14.045 9.932zM9.318 4.477L8.727 3.841 8.455 3.841 8.455 3.568 7.773 2.886 7.318 3.841 6.682 3.841 5.591 1.341 5.591 3.841 4.045 3.841 3.727 3.159 2.182 3.159 1.864 3.841 1.045 3.841 2.409.659 3.545.659 4.818 3.705 4.818.659 5.5.659 4.864.023 4.182.023 4.182.568 3.955.023 1.955.023 1.045 2.159 0 4.477 1.045 4.477 2.364 4.477 2.636 3.795 3.273 3.795 3.591 4.477 6.136 4.477 6.136 3.932 6.364 4.477 7.682 4.477 7.909 3.932 7.909 4.477z" transform="translate(5 5)"/>
                <path d="M7.227 2.386L6.5 1.659 7.045 2.841z" transform="translate(5 5)"/>
            </g>
            <g fill="#228FE0">
                <path d="M23.42 9.648c.41-.273.682-.728.728-1.228l-.637-.636c.046.136.091.273.091.455 0 .272-.09.5-.272.681-.182.182-.5.319-.955.319H20.92v-.682h1.455c.136 0 .227 0 .318-.091.046-.046.091-.136.091-.227s-.045-.182-.09-.228c-.046-.045-.137-.09-.274-.09-.727-.046-1.59 0-1.59-1 0-.455.272-.864.954-.955l-.5-.5c-.09.045-.136.09-.182.09v-.272h-2.09c-.319 0-.728.091-.91.273v-.273h-3.727v.273c-.273-.227-.773-.273-1-.273H10.92v.273c-.227-.227-.772-.273-1.045-.273H7.148l-.637.682-.59-.682h-.5l1.363 1.364.682-.728h2.409c.59 0 1.273.182 1.273 1.046 0 .909-.637 1.09-1.318 1.09h-.91v.683l.682.681V8.74h.228c.318 0 .727 0 1.045-.137V9.83h2.045V8.648h.091c.137 0 .137 0 .137.136V9.83h6.182c.409 0 .818-.091 1.045-.273v.273h1.955c.363.045.772 0 1.09-.182zM14.375 8.01c.09.137.136.319.136.591v.637h-.772v-.41c0-.181 0-.5-.137-.636-.09-.136-.272-.136-.545-.136h-.818v1.182h-.773V6.01h1.727c.364 0 .682 0 .91.137.227.136.408.363.408.727 0 .5-.318.773-.545.864.227.09.364.181.409.272zm3.136-1.318H15.74v.591h1.727v.636h-1.727v.637h1.772v.682h-2.545V6.01h2.545v.682zm1.91 2.546h-1.455v-.682h1.454c.137 0 .228 0 .319-.091.045-.046.09-.136.09-.227s-.045-.182-.09-.228c-.046-.045-.137-.09-.273-.09-.727-.046-1.591 0-1.591-1 0-.455.273-.955 1.09-.955h1.5v.773h-1.408c-.137 0-.227 0-.318.045-.091.046-.091.136-.091.227 0 .137.09.182.182.228.09.045.181.045.272.045h.41c.408 0 .681.091.863.273.136.136.227.363.227.682 0 .681-.409 1-1.182 1z" transform="translate(5 5) translate(4.489 .057)"/>
                <path d="M21.602 7.011c0 .137.046.182.182.228.091.045.182.045.273.045h.409c.273 0 .454.046.636.136l-.682-.681h-.409c-.136 0-.227 0-.318.045-.045.046-.09.136-.09.227zM20.011 4.284L20.102 4.42 20.148 4.42zM17.511 1.784L18.284 3.648 18.284 2.557z" transform="translate(5 5) translate(4.489 .057)"/>
                <path d="M9.739 3.284h.09c.091 0 .091 0 .091.136v1h3.273v-.272c.273.136.682.272 1.227.272h1.364l.273-.727h.636l.273.727h2.636v-.454l-.636-.636v.5H17.42l-.227-.728h-1.59l-.273.728h-.864c-.364 0-.818-.091-1.091-.364s-.41-.636-.41-1.227c0-.455.092-.91.41-1.273.227-.273.636-.364 1.136-.364h.728v.682h-.728c-.272 0-.409.046-.59.182-.137.136-.228.409-.228.727 0 .364.046.591.227.773.137.136.319.182.546.182h.318l1.046-2.5h.454L15.648.01h-1.182c-.5 0-.91.091-1.273.273V.011h-2v.273c-.227-.182-.5-.273-.863-.273H3.01l-.5 1.137-.5-1.137h-2l.637.637h.909L2.33 2.33l.272.272.818-2h1.273V3.83H3.92v-2.5l-.772 1.818 1.318 1.318h5.227l.046-1.182zm2.09-2.682h.773V3.83h-.772V.602zm-4 .682H6.058v.591h1.727v.636H6.057v.637H7.83v.682H5.284V.602H7.83v.682zm1.273 2.5H8.33V.557h1.727c.409 0 .682 0 .909.136.227.137.364.364.364.727 0 .5-.319.773-.546.864.182.046.318.182.364.273.09.182.136.318.136.59v.637h-.773v-.409c0-.182 0-.455-.136-.636-.045-.091-.182-.091-.455-.091h-.818v1.136z" transform="translate(5 5) translate(4.489 .057)"/>
            </g>
        </g>
    </g>
</svg>
