<svg xmlns="http://www.w3.org/2000/svg" width="280" height="200" viewBox="0 0 280 200">
    <g fill="none" fill-rule="evenodd">
        <ellipse cx="140" cy="187.925" fill="#E2ECF2" fill-rule="nonzero" rx="140" ry="12.075"/>
        <path fill="#EB996E" fill-rule="nonzero" d="M121.628 9.852l-3.966 1.286s2.064 8.753 4.965 21.579c.296.72-.125 1.585-1.299 1.495-5.314-.508-20.014-1.573-29.597-1.747-.592-.01-1.705 1.158-2.154 1.658-.115.129-.119.321-.01.454 0 0 7.463 9.18 7.558 9.189 4.446.39 8.913.511 13.374.36 3.238-.125 6.777-.41 9.112-.582 10.3-1.273 11.465-4.192 11.84-5.792l-.006-.01c.06-.39 2.032-6.092-9.817-27.89z"/>
        <path fill="#E28C71" fill-rule="nonzero" d="M130.282 29.175c.077.748.593 4.881-.197 7.172-.797 2.31-3.063 3.666-5.663 4.258-4.197.954-10.117.794-13.176.942-6.755.329-10.546-1.75-12.731-8.856-2.416-.108-4.729-.188-6.784-.226-.592-.01-1.705 1.158-2.154 1.658-.115.128-.119.321-.01.454 0 0 7.463 9.18 7.558 9.189 4.446.39 8.912.511 13.374.36 3.238-.125 6.777-.41 9.112-.582 9.995-1.235 10.732-2.925 11.784-5.409.081-.19.145-.386.19-.588.216-.994.29-3.454-1.303-8.372z"/>
        <path fill="#4FABC4" fill-rule="nonzero" d="M116.717 33.848c-6.531-.58-17.323-1.244-24.986-1.383-.592-.01-1.705 1.158-2.154 1.658-.115.129-.119.321-.01.454l8.007 9.193c.06.075.366.89.46.899 4.162.068 8.325-.113 12.465-.542.288-4.207 4.037-5.139 6.218-10.279z"/>
        <path fill="#4F8FC4" fill-rule="nonzero" d="M97.466 32.64c-2.017-.081-3.962-.142-5.736-.175-.59-.01-1.704 1.158-2.153 1.658-.115.128-.119.321-.01.454l8.007 9.193c.06.075.366.89.46.899 4.162.068 8.325-.113 12.465-.542.054-.905.31-1.786.747-2.58-.874-.128-1.757-.195-2.628-.345-.462-.08-.928-.145-1.382-.258-.673-.163-1.325-.4-1.945-.707-1.521-.769-2.304-2.292-3.098-3.715-.681-1.22-1.313-2.602-2.657-3.214-.645-.345-1.346-.57-2.07-.669z"/>
        <path fill="#F2F2F2" fill-rule="nonzero" d="M48.078 183.392L48.437 179.914 53.077 180.497 52.63 183.392zM65.567 183.325L65.356 179.865 70.011 180.345 70.302 183.325z"/>
        <path fill="#D3D1D3" fill-rule="nonzero" d="M234.87 162.245l-10.146-20.935-1.24.506c.011.039-.819.302-.796.348l10.215 21.037c.56 1.152.486 2.512-.194 3.598-.68 1.086-1.87 1.745-3.152 1.745h-76.313c-.604 0-1.094.49-1.094 1.094 0 .604.49 1.094 1.094 1.094h76.313c2.034 0 3.926-1.047 5.006-2.772 1.08-1.725 1.196-3.884.308-5.715z"/>
        <path fill="#D3D1D3" fill-rule="nonzero" d="M183.45 168.544h-30.206c-.604 0-1.094.49-1.094 1.094 0 .604.49 1.094 1.094 1.094h51.815c-7.149-1.824-14.596.376-21.609-2.188z"/>
        <path fill="#BFBFBF" fill-rule="nonzero" d="M229.985 152.175l-5.26-10.865-2.124.609c.012.043.028.085.047.125l7.554 15.596c.368-1.812.294-3.687-.217-5.464zM183.45 168.544c7.013 2.564 14.46.364 21.61 2.188h18.907c-1.571-.791-3.154-1.563-4.767-2.188h-35.75z"/>
        <path fill="#D3D1D3" fill-rule="nonzero" d="M234.563 167.96c1.086-1.723 1.203-3.885.308-5.715l-4.886-10.07c.51 1.778.585 3.653.217 5.465l2.7 5.56c.56 1.153.487 2.512-.193 3.598-.68 1.086-1.871 1.746-3.153 1.746H219.2c1.613.625 3.196 1.397 4.767 2.188h5.59c2.037.006 3.931-1.043 5.007-2.772z"/>
        <path fill="#A1A7A7" fill-rule="nonzero" d="M256.672 72.737l-17.29 6.203c-3.752 1.347-6.478 4.623-7.12 8.558l-.01.065c.905 0 1.64.734 1.64 1.64v.876c.395-.14.52-.644.603-1.152l.17-1.037c.498-3.062 2.62-5.611 5.54-6.659l16.468-5.91-.001-2.584z"/>
        <path fill="#BFBFBF" fill-rule="nonzero" d="M256.672 72.737l-13.673 4.905c-.442.251-.869.528-1.278.83-.685.753-1.143 1.685-1.319 2.688l16.27-5.838v-2.585z"/>
        <path fill="#D3D1D3" fill-rule="nonzero" d="M242.999 77.642l-3.618 1.298c-3.752 1.347-6.478 4.624-7.12 8.558l-.01.065c.906 0 1.64.735 1.64 1.64v.876c.396-.139.521-.643.604-1.151l.17-1.038c.498-3.061 2.62-5.61 5.54-6.658l.198-.072c.176-1.003.633-1.935 1.32-2.687.408-.302.834-.58 1.276-.83z"/>
        <circle cx="168.052" cy="180.534" r="7.752" fill="#333" fill-rule="nonzero"/>
        <path fill="#3F3F3F" fill-rule="nonzero" d="M165.553 177.551c.059-.239.131-.475.216-.707.487-1.357 1.38-2.532 2.557-3.364.067-.047.135-.092.204-.135.289-.18.598-.325.921-.43-3.335-.614-6.683 1.013-8.261 4.015-1.578 3.002-1.02 6.682 1.376 9.081 2.397 2.4 6.076 2.961 9.08 1.387-.315.164-1.837-.714-2.108-.886-2.48-1.595-4.038-4.29-4.182-7.237-.003-.245.006-.49.03-.734.03-.333.087-.664.167-.99z"/>
        <circle cx="168.052" cy="180.534" r="3.431" fill="#D6DDE3" fill-rule="nonzero"/>
        <path fill="#E7EDF2" fill-rule="nonzero" d="M166.798 177.347c-1.22.477-2.061 1.607-2.168 2.913-.106 1.305.541 2.557 1.668 3.225 1.126.669 2.535.636 3.63-.083-2.311-1.06-3.602-3.558-3.13-6.055z"/>
        <circle cx="168.052" cy="180.534" r="1.699" fill="#666" fill-rule="nonzero"/>
        <path fill="#707070" fill-rule="nonzero" d="M167.383 178.972c-.742.318-1.158 1.113-.995 1.903.162.79.857 1.358 1.664 1.357.29-.001.575-.078.827-.223-.954-.716-1.51-1.844-1.496-3.036z"/>
        <path fill="#A1A7A7" fill-rule="nonzero" d="M163.254 170.734l2.673 9.949c.077.285.335.483.63.483h3.033c.297 0 .556-.2.631-.486l2.629-9.946h-9.596z"/>
        <path fill="#ADB2B2" fill-rule="nonzero" d="M167.272 170.734h-4.018l2.673 9.949c.077.285.335.483.63.483h3.033c.297 0 .556-.2.631-.486l.45-1.703c-2.656-1.57-3.85-5.4-3.4-8.243z"/>
        <circle cx="168.052" cy="180.534" r="1" fill="#4D4D4D" fill-rule="nonzero"/>
        <path fill="#666" fill-rule="nonzero" d="M172.853 172.628h-9.602c-.466 0-.843-.377-.843-.843v-1.048h11.288v1.048c0 .224-.089.438-.247.596-.158.159-.373.247-.596.247z"/>
        <path fill="#D3D1D3" fill-rule="nonzero" d="M233.543 87.422c-.748-.804-1.83-1.211-2.923-1.1l-3.62.356-.19.02-1.06.103-9 .889-7.953.784-9.118.898-.622.062-.605.06-7.904.779-.68.067-.541.053-7.92.783-10.352 1.02-8.653.854-8.265.813-1.044.103-.167.017-8.702.858-8.032.793-.808.08-.404.04-3.701.366c-.95.094-1.822.568-2.416 1.316-.595.747-.86 1.703-.738 2.65l5.124 39.5c.233 1.757 1.728 3.072 3.5 3.076h86c1.727.006 3.204-1.244 3.482-2.95l8.216-49.298c.185-1.084-.15-2.192-.904-2.992zm-3.914 24.495l-6.435.522.916-6.202 6.554-.532-1.035 6.212zm-6.656-6.312l-7.307.594.787-6.557 7.496-.644-.976 6.607zm-8.545.694l-7.318.594.595-6.498 7.51-.646-.787 6.55zm-8.55.694l-7.331.596.4-6.441 7.526-.647-.595 6.492zm-8.557.695l-7.342.596.202-6.382 7.54-.649-.4 6.435zm-8.563.695l-7.35.597v-6.324l7.552-.65-.202 6.377zm-8.568.696l-7.456.606-.166-6.268 7.622-.656v6.318zm-8.671.704l-7.418.602-.329-6.212 7.582-.652.165 6.262zm-8.632.701l-7.382.6-.49-6.158 7.544-.648.328 6.206zm-8.595.698l-7.344.596-.648-6.102 7.503-.646.489 6.152zm-8.558.695l-7.306.593-.803-6.048 7.462-.642.647 6.097zm-8.52.692l-6.178.501-.78-6.014 6.155-.53.802 6.043zm.094.716l.806 6.062-6.198.504-.787-6.064 6.18-.502zm1.215-.098l7.287-.592.54 5.09.105.985-7.127.579-.805-6.062zm9.048 4.47l-.547-5.16 7.325-.595.484 6.088-7.165.582-.097-.915zm7.99-5.854l7.364-.598.322 6.101-7.202.585-.483-6.088zm8.577-.696l7.4-.601.162 6.114-7.238.588-.324-6.101zm8.615-.7l7.437-.604v6.127l-7.276.59-.161-6.113zm8.654-.703l7.328-.595-.09 2.826-.104 3.317-7.134.58v-6.128zm8.456 2.25l.093-2.944 7.32-.594-.383 6.158-7.131.579.1-3.2zm8.638-3.638l7.31-.593-.566 6.173-7.126.578.382-6.158zm8.541-.693l7.297-.593-.743 6.188-7.12.578.566-6.173zm8.535-.693l7.287-.592-.916 6.202-7.114.577.743-6.187zm15.21-1.96l-6.57.534.977-6.614 6.701-.576-1.109 6.656zm-6.73-6.707l-7.516.647 1.213-10.096 7.813-.772-1.51 10.221zm-7.544-9.327l-1.211 10.08-7.53.648.343-3.748.568-6.208 7.83-.772zm-9.063.893l-.638 6.965-.273 2.976-7.547.65.61-9.818 7.848-.773zm-9.684 10.696l-7.563.65.306-9.677 7.865-.775-.608 9.802zm-8.478-8.905l-.305 9.66-7.575.652v-9.534l7.88-.778zm-9.097.898v9.519l-7.641.657-.249-9.398 7.89-.778zm-9.104.897l.248 9.384-7.6.653-.49-9.263 7.842-.774zm-16.854 1.662l7.798-.768.49 9.248-7.562.65-.154-1.938-.572-7.192zm-.607 7.72l.12 1.515-7.522.647-.955-8.998 7.753-.765.604 7.6zm-9.568-6.717l.953 8.982-7.481.644-1.178-8.865 7.706-.761zm-14.242 2.112c.387-.491.959-.802 1.582-.861l3.742-.37 1.176 8.85-6.153.529-.831-6.412c-.083-.62.092-1.248.484-1.736zm6.933 43.253c-1.16-.004-2.14-.865-2.293-2.016l-2.447-18.862 6.2-.503 2.84 21.38h-4.3zm5.528 0l-2.853-21.48 7.107-.577 2.341 22.057h-6.595zm7.819 0l-2.351-22.155 7.145-.58 1.806 22.735h-6.6zm14.429 0h-6.608l-1.814-22.834 7.183-.583.063 1.187 1.176 22.23zm1.219 0l-1.178-22.274-.066-1.242 7.219-.586.637 24.102h-6.612zm7.83 0l-.64-24.2 7.257-.59v24.79h-6.618zm7.834 0v-24.889l7.11-.577-.803 25.466h-6.307zm7.524 0l.808-25.565 7.109-.577-1.624 26.142h-6.293zm7.512 0l1.63-26.242 7.105-.577-2.457 26.819h-6.278zm13.761 0h-6.26l2.465-26.919 7.099-.576-.548 4.559-2.756 22.936zm1.227 0l2.75-22.898.565-4.698 7.093-.576-4.161 28.172h-6.247zm13.599-1.933c-.183 1.117-1.15 1.936-2.282 1.933h-3.84l4.176-28.273 6.421-.521-4.475 26.86zm8.215-49.3l-1.227 7.367-6.715.578 1.512-10.237 3.923-.387c.716-.07 1.425.196 1.916.72.491.526.71 1.25.591 1.96z"/>
        <path fill="#3AC19D" fill-rule="nonzero" d="M260.03 71.13c-.296 0-.592.046-.874.137l-5.325 1.78c-.245.089-.443.273-.55.51-.106.238-.113.508-.018.75l.529 1.355c.217.457.73.692 1.218.557 1.26-.372 2.611-.28 3.809.26.378.189.79.3 1.212.326 1.018.006 1.96-.534 2.471-1.414.511-.88.511-1.967 0-2.848-.51-.88-1.453-1.42-2.471-1.414z"/>
        <path fill="#727272" fill-rule="nonzero" d="M162.408 170.737v1.048c0 .466.377.843.843.843h2.892c-.312-.587-.506-1.23-.573-1.891h-3.162z"/>
        <circle cx="220.674" cy="180.534" r="7.752" fill="#333" fill-rule="nonzero"/>
        <path fill="#3F3F3F" fill-rule="nonzero" d="M218.175 177.551c.06-.239.131-.475.216-.707.487-1.357 1.38-2.532 2.557-3.364.067-.047.135-.092.205-.135.288-.18.597-.325.92-.43-3.335-.614-6.682 1.013-8.26 4.015-1.579 3.002-1.021 6.682 1.376 9.081 2.397 2.4 6.076 2.961 9.08 1.387-.316.164-1.838-.714-2.109-.886-2.48-1.595-4.038-4.29-4.181-7.237-.004-.245.006-.49.029-.734.031-.333.087-.664.167-.99z"/>
        <circle cx="220.674" cy="180.534" r="3.431" fill="#D6DDE3" fill-rule="nonzero"/>
        <path fill="#E7EDF2" fill-rule="nonzero" d="M219.42 177.347c-1.219.477-2.06 1.607-2.166 2.912-.107 1.306.54 2.558 1.666 3.226 1.127.668 2.535.636 3.63-.083-2.31-1.06-3.602-3.558-3.13-6.055z"/>
        <circle cx="220.674" cy="180.534" r="1.699" fill="#666" fill-rule="nonzero"/>
        <path fill="#707070" fill-rule="nonzero" d="M220.005 178.972c-.741.318-1.157 1.113-.995 1.903.162.79.858 1.358 1.664 1.357.29-.001.576-.078.827-.223-.954-.716-1.51-1.844-1.496-3.036z"/>
        <path fill="#A1A7A7" fill-rule="nonzero" d="M215.876 170.734l2.674 9.949c.076.285.335.483.63.483h3.033c.296 0 .555-.2.63-.486l2.63-9.946h-9.597z"/>
        <path fill="#ADB2B2" fill-rule="nonzero" d="M219.894 170.734h-4.018l2.674 9.949c.076.285.335.483.63.483h3.033c.296 0 .555-.2.63-.486l.45-1.703c-2.656-1.57-3.85-5.4-3.399-8.243z"/>
        <circle cx="220.674" cy="180.534" r="1" fill="#4D4D4D" fill-rule="nonzero"/>
        <path fill="#666" fill-rule="nonzero" d="M225.475 172.628h-9.602c-.465 0-.843-.377-.843-.843v-1.048h11.289v1.048c0 .466-.378.843-.844.843z"/>
        <path fill="#727272" fill-rule="nonzero" d="M215.03 170.737v1.048c0 .224.089.438.247.596.158.159.373.247.597.247h2.892c-.312-.587-.507-1.23-.574-1.891h-3.162z"/>
        <path fill="#36B79A" fill-rule="nonzero" d="M261.777 71.745c.414.326.262 1.774.1 2.22-.268.766-.987 1.281-1.798 1.29-1.983.106-3.21-1.915-4.845-2.677l-1.403.468c-.244.09-.443.274-.55.511-.106.238-.113.508-.017.75l.528 1.355c.217.457.73.692 1.218.557 1.26-.372 2.611-.28 3.809.26.378.189.79.3 1.212.326 1.21.004 2.289-.762 2.684-1.906.394-1.143.017-2.412-.938-3.154z"/>
        <path fill="#3AC19D" fill-rule="nonzero" d="M131.011 95.979l12.796-1.424c.27-.033.516.16.55.43l1.085 10.06-16.457 1.355c-.27.033-.516-.16-.549-.43l-.637-6.108c-.185-1.959 1.253-3.697 3.212-3.883z"/>
        <path fill="#36B79A" fill-rule="nonzero" d="M130.064 96.226c-1.49.561-2.418 2.052-2.265 3.636l.637 6.108c.033.27.279.463.55.43l16.456-1.356-.36-3.331c-6.575 1.452-13.556 1.796-15.018-5.487z"/>
        <path fill="#7A4E5A" fill-rule="nonzero" d="M55.821 88.217L72.8 87.673 73.283 112.772 73.258 113.561 73.258 113.561 70.36 180.745 64.955 180.745z"/>
        <path fill="#8F575F" fill-rule="nonzero" d="M68.598 162.554c-.414 2.83-2.636 7.952-4.36 10.94l.717 7.251h5.405l1.92-44.496c-6.9 9.86-2.155 8.738-3.682 26.305zM52.29 95.052L73.448 90.4 53.471 180.704 47.905 180.103z"/>
        <path fill="#A0616A" fill-rule="nonzero" d="M57.008 138.08c-1.06-4.763-3.857-8.832-6.336-13.12l-2.767 55.144 5.566.6 1.354-6.12c-6.753-11.921 2.977-23.787 2.182-36.503z"/>
        <path fill="#4FABC4" fill-rule="nonzero" d="M94.014 59.704c-1.568 2.068-3.831 3.471-6.68 7.407-.008.007-.015.015-.02.024-1.12 1.57-2.136 3.21-3.044 4.912-7.45 11.612-9.091 26.329-9.091 26.329-6.328 5.93-22.887-3.326-22.887-3.326 1.293-13.783 3.905-16.126 10.22-33.815 3.264-9.146 15.876-32.24 24.101-30.264 2.561.653 4.932 1.9 6.92 3.643 1.735 1.606 3.323 3.364 4.746 5.253 1.3 1.684 3.809 10.741-4.264 19.837z"/>
        <path fill="#4FABC4" fill-rule="nonzero" d="M87.315 67.135c-.933 1.569-1.948 3.206-3.045 4.912.908-1.701 1.925-3.342 3.045-4.912z"/>
        <path fill="#4F99C4" fill-rule="nonzero" d="M68.632 77.85c-2.958-18.339 6.702-33.81 19.527-46.413-.506-.187-1.023-.344-1.548-.469-8.224-1.975-20.837 21.12-24.102 30.27-6.31 17.688-8.926 20.03-10.219 33.814 0 0 16.56 9.256 22.89 3.324.367-2.798.908-5.571 1.62-8.302-4.461-2.599-7.475-7.109-8.168-12.224z"/>
        <path fill="#333" fill-rule="nonzero" d="M65.462 181.595l-.611 6.768h18.003v-.54c0-1.301-.835-2.456-2.07-2.864l-9.227-2.362c-.563-.186-1.058-.534-1.425-1l-4.67-.002z"/>
        <path fill="#4FABC4" fill-rule="nonzero" d="M108.908 67.66s-4.9-.616-11.898 4.655c-.012.007-.018.019-.03.025 0 0-13.412-19.208-11.862-22.997 1.55-3.789 6.493-14.204 13.882-8.34 2.66 9.069 5.955 17.94 9.86 26.547.018.037.03.074.048.11z"/>
        <path fill="#E28C71" fill-rule="nonzero" d="M137.153 94.093c3.233 1.687 4.184 8.873 8.604 6.469.066.102-.839 2.642-3.849 1.487-1.497-.508-2.676-1.679-3.193-3.173-.537-1.174-1.143-2.315-1.816-3.417 0 0-1.288-.405-3.624-1.21 1.225-.547 2.613-.602 3.878-.156z"/>
        <path fill="#EB996E" fill-rule="nonzero" d="M145.756 100.56c-4.418 2.404-5.37-4.778-8.603-6.468-1.267-.444-2.655-.387-3.881.159-4.985-1.727-14.772-5.272-27.054-10.617-3.18-2.349-6.383-6.864-9.208-11.318 6.999-5.272 11.898-4.656 11.898-4.656-.018-.036-.03-.073-.048-.11 1.366 2.618 2.776 5.23 3.392 6.181 2.55 3.948 6.126 7.041 9.793 9.988 4.344 3.485 11.563 7.426 16.462 10.3 3.863 2.264 4.796 2.776 7.249 6.541z"/>
        <path fill="#EB996E" fill-rule="nonzero" d="M138.509 94.02c3.86 2.266 4.75 1.868 7.248 6.542-4.42 2.404-5.37-4.782-8.604-6.469M111.968 25.41c3.975-4.194 7.23-11.188 3.036-15.164-4.194-3.976-13.372-.719-17.813 5.46-3.615 6.224-4.01 9.856.184 13.832 5.987 4.168 10.617.066 14.593-4.128z"/>
        <path fill="#EB996E" fill-rule="nonzero" d="M94.43 22.477l1.664 5.68c-.605.603-5.204 4.38-2.23 6.753 0 0-9.306-1.369-8.17-4.09 1.13-.7 7.938-4.644 8.736-8.343z"/>
        <path fill="#B56F5D" fill-rule="nonzero" d="M93.883 23.808c.565 1.53 1.307 2.99 2.21 4.348l-.835.791s-2.334-3.816-1.664-4.687l.289-.452z"/>
        <circle cx="110.523" cy="22.935" r="1" fill="#253239" fill-rule="nonzero"/>
        <ellipse cx="105.06" cy="28.993" fill="#F2F2F2" fill-rule="nonzero" rx="1.623" ry="1.195" transform="rotate(-30 105.06 28.993)"/>
        <path fill="#333" fill-rule="nonzero" d="M124.334 9.965c-.203-.218-.704-.24-.682-.526.011-.142.233-.16.349-.248.265-.166.484-.397.635-.67.107-.216.162-.452.16-.692-.024-.512-.296-.98-.73-1.255-.175-.118-.365-.214-.564-.284-.975-.356-2.457.433-1.98-.465.18-.284.207-.638.072-.947-.505-.903-2.668-1.32-3.586-1.452-1.081-.154-2.182-.166-3.249-.415-.84-.255-1.64-.622-2.38-1.093-.823-.45-1.684-.825-2.574-1.122-1.8-.617-3.702-.877-5.602-.767-1.923.101-3.773.768-5.318 1.918-.94.719-1.761 1.58-2.436 2.551l-.041.051c-3.962 5.248-4.341 9.654-4.052 12.201.39 2.946 1.142 1.553.438 3.804-.461 1.205-.005 2.569 1.089 3.254 0 0 4.932.04 7.376-4.12 0 0-.208-4.721 1.547-4.307 2.258.45 1.367 3.43 1.367 3.43l1.24.48c-.04-.015 2.27-2.505 2.434-2.626 1.775-1.316 3.636-1.106 5.638-.51 1.481.466 3.04.642 4.588.517 1.267-.117 3.318-.316 4.01-1.597.087-.17.152-.35.192-.537 0-.19.01-.38.03-.568.137-.26.58-.377.823-.5.31-.154.597-.349.855-.58.45-.33.743-.832.81-1.386.066-.554-.1-1.111-.459-1.539z"/>
        <path fill="#EB996E" fill-rule="nonzero" d="M136.497 92.904c5.01.627 5.789 1.827 5.789 1.827l-2.516.294-3.273-2.121z"/>
        <path fill="#4D4D4D" fill-rule="nonzero" d="M48.26 181.595l-.619 6.768h18.75v-.54c0-1.301-.834-2.456-2.07-2.864l-9.973-2.362c-.562-.186-1.058-.533-1.424-1l-4.664-.002z"/>
        <path d="M0 0H280V199.994H0z"/>
    </g>
</svg>
