<svg xmlns="http://www.w3.org/2000/svg" width="41" height="22" viewBox="0 0 41 22">
    <g fill="none" fill-rule="evenodd" transform="translate(1 1)">
        <rect width="39.5" height="20.5" x="-.25" y="-.25" fill="#F1F2F6" stroke="#C3C3C3" stroke-width=".5" rx="2"/>
        <g fill-rule="nonzero">
            <path fill="#E2574C" d="M12.652 6c0 3.314-2.686 6-6 6s-6-2.686-6-6 2.687-6 6-6c3.314 0 6 2.686 6 6z" transform="translate(9.348 4)"/>
            <path fill="#F4B459" d="M13.653 0c-1.346 0-2.584.448-3.585 1.196l.005.001c.197.19.414.324.581.543l-1.248.02c-.195.197-.373.412-.541.635h2.2c.168.201.323.376.463.598H8.466c-.112.193-.216.392-.307.598h3.718c.097.206.184.361.258.579H7.939c-.067.207-.124.419-.167.635h4.538c.045.207.079.4.102.595h-4.73c-.02.197-.03.398-.03.6h4.795c0 .212-.015.41-.037.6H7.682c.02.203.05.403.09.6h4.531c-.047.194-.1.39-.168.593h-4.21c.064.205.141.404.226.599h3.726c-.104.218-.22.393-.35.597H8.455c.121.21.255.41.4.603l2.21.033c-.188.226-.43.362-.65.56.012.01-.352-.001-1.07-.013C10.438 11.298 11.962 12 13.653 12c3.314 0 6-2.686 6-6s-2.685-6-6-6z" transform="translate(9.348 4)"/>
        </g>
    </g>
</svg>
