<svg xmlns="http://www.w3.org/2000/svg" xmlns:xlink="http://www.w3.org/1999/xlink" width="41" height="22" viewBox="0 0 41 22">
    <defs>
        <path id="prefix__a" d="M0.004 0.061L24.759 0.061 24.759 7.446 0.004 7.446z"/>
    </defs>
    <g fill="none" fill-rule="evenodd" transform="translate(1 1)">
        <rect width="39.5" height="20.5" x="-.25" y="-.25" fill="#F1F2F6" stroke="#C3C3C3" stroke-width=".5" rx="2"/>
        <g>
            <path fill="#2B2C6E" d="M14.244 2.676c-.219.61-.82.537-.82.537h-.822l.324-1.206.864.002c.42 0 .573.334.454.667zm1.725-.564c.134-1.057-.672-1.498-1.677-1.498h-2.64l-1.56 5.682h1.679l.471-1.751 1.338.008s2.07.087 2.39-2.441zM6.382 2.168h1.53l-.63 2.426s-.157.54.35.582c.399.033.696-.444.794-.767.128-.424.625-2.24.625-2.24h1.577l-1.2 4.127H8.051l.17-.59s-.703.857-1.747.754c-.927-.09-1.007-.764-.847-1.603.08-.412.755-2.689.755-2.689" transform="translate(5 6)"/>
            <g transform="translate(5 6) translate(0 .554)">
                <mask id="prefix__b" fill="#fff">
                    <use xlink:href="#prefix__a"/>
                </mask>
                <path fill="#2B2C6E" d="M17.38 4.902c-.262.066-.58.102-.643-.136-.173-.653 1.355-.844 1.355-.844.01.595-.51.928-.712.98zm2.312-1.195c.202-.687.457-1.337.252-1.698-.315-.551-.882-.6-1.713-.6-.918 0-2.051.175-2.42 1.395h1.527s.14-.46.713-.43c.508.025.48.374.293.567-.328.339-1.234.151-2.238.5-.877.304-1.184 1.457-.993 1.917.184.446.528.503.992.549.745.073 1.316-.343 1.582-.586 0 .27.007.422.007.422h1.608l-.004-.152s-.143-.038-.127-.24c.012-.147.29-.856.521-1.644zM4.221 2.11c-.217.502-.89.445-.89.445l-.783-.004.286-1.065 1.044.003c.368 0 .483.296.343.62zm1.78-.726C6.135.327 5.205.06 4.2.06H1.559L0 5.743h1.678l.524-1.93.942.008s.388-.023.396.342c.008.39-.289 1.104-.27 1.58h1.725L4.99 5.59s-.144-.038-.128-.24c.007-.083.1-.348.22-.705.074-.158.184-.532.173-.836-.012-.38-.25-.556-.594-.68 1.071-.251 1.34-1.746 1.34-1.746zM20.42 1.614h1.56v2.477l1.348-2.477h1.431l-2.885 5.008s-.267.42-.6.642c-.273.183-.608.175-.71.182-.57-.005-1.258-.006-1.258-.006l.332-1.194h.536s.246-.026.34-.147c.091-.115.137-.23.137-.4 0-.254-.23-4.085-.23-4.085" mask="url(#prefix__b)"/>
            </g>
            <path fill="#197845" d="M26.759 1.214L24.959 7.476 28.328 4.345 26.759 1.214" transform="translate(5 6)"/>
            <path fill="#E06B2B" d="M25.605 1.214L23.805 7.476 27.174 4.345 25.605 1.214" transform="translate(5 6)"/>
            <path fill="#0A0B09" d="M28.956.078c-.342 0-.62.278-.62.62 0 .342.278.62.62.62.343 0 .62-.278.62-.62 0-.342-.277-.62-.62-.62zm0 1.302c-.376 0-.682-.306-.682-.682 0-.376.306-.682.682-.682.376 0 .682.306.682.682 0 .376-.306.682-.682.682z" transform="translate(5 6)"/>
            <path fill="#0A0B09" d="M28.626.953L28.626.526 28.466.526 28.466.469 28.85.469 28.85.526 28.69.526 28.69.953 28.626.953M28.947.953V.469h.096l.115.343.023.071.026-.077.115-.337h.086v.484h-.061V.548l-.14.405h-.058l-.14-.412v.412h-.062" transform="translate(5 6)"/>
        </g>
    </g>
</svg>
