<svg xmlns="http://www.w3.org/2000/svg" width="41" height="22" viewBox="0 0 41 22">
    <g fill="none" fill-rule="evenodd" transform="translate(1 1)">
        <rect width="39.5" height="20.5" x="-.25" y="-.25" fill="#F1F2F6" stroke="#C3C3C3" stroke-width=".5" rx="2"/>
        <g fill-rule="nonzero">
            <path fill="#3C58BF" d="M15.633 14.562l1.473-8.286h2.302l-1.427 8.286zM26.313 6.368C25.853 6.184 25.116 6 24.195 6c-2.301 0-3.958 1.15-3.958 2.808 0 1.243 1.15 1.887 2.07 2.302.922.414 1.198.69 1.198 1.058 0 .553-.737.829-1.381.829-.92 0-1.427-.138-2.21-.46l-.322-.139-.322 1.888c.552.23 1.565.46 2.624.46 2.44 0 4.05-1.15 4.05-2.9 0-.967-.598-1.703-1.979-2.302-.828-.414-1.335-.644-1.335-1.058 0-.369.414-.737 1.335-.737.783 0 1.335.138 1.75.322l.23.092.368-1.795zM30.271 6.276c-.552 0-.966.046-1.196.599l-3.453 7.687h2.486l.46-1.381h2.946l.276 1.38H34l-1.933-8.285H30.27zM29.213 11.8c.138-.414.92-2.44.92-2.44s.184-.506.323-.828l.138.782s.46 2.072.552 2.532h-1.933V11.8zM11.398 12.076l-.23-1.197c-.414-1.38-1.749-2.9-3.222-3.636l2.071 7.365h2.486l3.729-8.286h-2.486l-2.348 5.754z"/>
            <path fill="#FFBC00" d="M5 6.276l.414.092c2.946.69 4.972 2.44 5.754 4.511l-.828-3.912c-.138-.553-.553-.69-1.059-.69H5z"/>
        </g>
    </g>
</svg>
